PathFileType	4	(X/Y/Z)	C:/Users/beibeiliu/ov580/test_trc/User2\sequence.41_training_dense_left.trc
DataRate	CameraRate	NumFrames	NumMarkers	Units	OrigDataRate	OrigDataStartFrame	OrigNumFrames
120	120	9	19	mm	120	49	170
Frame#	Time	ThumbCMC			ThumbMCP			ThumbIP			ThumbTip			IndexMCP			IndexPIP			IndexTip			MiddleMCP			MiddlePIP			MiddleTip			RingMCP			RingPIP			RingTip			PinkyMCP			PinkyPIP			PinkyTip			BackHand1			BackHand2			BackHand3	
		X0	Y0	Z0	X1	Y1	Z1	X2	Y2	Z2	X3	Y3	Z3	X4	Y4	Z4	X5	Y5	Z5	X6	Y6	Z6	X7	Y7	Z7	X8	Y8	Z8	X9	Y9	Z9	X10	Y10	Z10	X11	Y11	Z11	X12	Y12	Z12	X13	Y13	Z13	X14	Y14	Z14	X15	Y15	Z15	X16	Y16	Z16	X17	Y17	Z17	X18	Y18	Z18	
48	0.4	-230.876	36.6432	-7.75634	-221.685	57.1472	-32.3659	-202.456	68.8316	-64.0551	-176.695	53.3139	-72.7937	-186.447	30.5211	-84.7342	-156.731	44.4828	-81.5834	-159.761	52.9709	-45.8938	-169.521	13.7324	-80.1527	-142.233	36.7556	-66.4274	-161.255	39.3404	-30.7674	-157.895	1.08296	-71.2917	-132.899	18.1438	-57	-158.114	23.0525	-28.4338	-147.901	-16.8228	-58.1159	-130.643	9.27186	-46.3144	-146.292	15.2458	-22.2979	-204.53	-26.9428	-32.4899	-220.609	-29.6712	-8.10807	-231.52	-1.156	-24.7919	
49	0.408333	-232.154	38.1645	-11.092	-225.351	54.8476	-32.6143	-207.157	65.3387	-62.4332	-180.605	52.0546	-74.4226	-184.673	30.0733	-85.0937	-157.318	46.5744	-80.2668	-160.398	54.7978	-47.5617	-169.269	15.0969	-81.5481	-141.793	33.6857	-66.9832	-160.139	33.8814	-28.4576	-154.879	-0.633919	-71.9349	-134.773	20.5853	-57.1671	-153.663	21.2477	-26.3005	-154.501	-16.7925	-54.858	-132.335	8.10838	-48.7534	-146.672	14.6453	-17.8263	-204.344	-26.3049	-35.0817	-221.642	-27.6258	-5.51504	-231.487	0.551144	-25.5099	
50	0.416667	-233.968	35.5688	-5.92673	-230.134	53.6202	-34.6443	-213.419	63.6737	-62.8065	-186.875	53.8943	-78.569	-190.023	30.719	-82.364	-156.628	43.1346	-80.9206	-158.902	55.5457	-49.0519	-170.119	14.3819	-80.2887	-142.032	33.7227	-66.9163	-157.235	34.2957	-30.4544	-157.715	-0.487426	-71.042	-134.106	19.1684	-55.1228	-157.578	20.3111	-25.6533	-149.758	-16.1271	-56.3398	-129.175	5.97895	-46.7332	-147.504	15.8471	-21.3412	-205.249	-26.6722	-32.4272	-221.205	-32.0618	-6.19503	-231.943	-0.941243	-25.6793	
51	0.425	-235.97	35.0354	-6.40136	-236.158	54.4201	-34.9368	-218.944	61.2949	-64.6413	-191.583	50.3586	-81.3398	-189.003	28.906	-84.136	-160.148	44.7385	-82.3495	-161.641	54.1994	-46.3554	-172.256	15.0949	-80.5449	-145.749	36.0824	-70.5129	-163.61	34.4975	-28.3824	-158.833	2.69805	-71.701	-138.254	22.915	-56.4839	-156.45	20.6796	-26.6192	-151.152	-18.925	-55.0757	-132.938	9.77823	-45.2519	-154.003	14.1589	-23.1051	-205.657	-24.9876	-34.34	-220.321	-32.8344	-4.58038	-234.58	0.285677	-27.1543	
52	0.433333	-235.727	30.3513	-10.6508	-237.259	48.8656	-34.7955	-222.654	57.8651	-73.6569	-196.47	48.8867	-84.1393	-191.114	25.8584	-84.2019	-162.646	42.6474	-83.6244	-165.406	52.3424	-47.5573	-169.757	14.8383	-82.7335	-147.862	36.8903	-69.2407	-167.532	39.2554	-32.2886	-158.581	-1.32711	-69.7181	-140.848	23.0139	-56.921	-162.265	20.6615	-26.7195	-151.464	-16.693	-55.9643	-136.013	11.3071	-44.6763	-157.583	13.5449	-17.9497	-205.563	-24.9965	-35.9338	-223.18	-35.2954	-3.97073	-235.468	-0.901908	-30.0767	
53	0.441667	-240.121	31.8003	-10.6284	-238.369	47.5176	-42.388	-224.5	57.1426	-75.1307	-200.437	49.7712	-86.811	-195.449	25.6182	-86.0338	-166.912	44.6352	-84.2374	-170.296	54.7911	-52.1128	-175.492	18.5661	-84.1585	-151.654	38.6111	-65.361	-173.105	36.3616	-31.823	-162.937	4.48105	-73.7603	-143.994	22.2994	-58.2714	-166.114	24.142	-30.418	-156.826	-14.1317	-59.1665	-140.948	13.418	-48.2415	-160.598	15.9558	-22.8522	-209.368	-30.315	-34.5651	-225.362	-34.2268	-7.54052	-238.959	-1.28125	-31.8319	
54	0.45	-241.767	30.2619	-17.5475	-238.236	46.3702	-41.7075	-224.489	56.1056	-75.6096	-202.039	50.8289	-90.3262	-198.564	24.7584	-88.8627	-170.302	45.8696	-83.9006	-177.156	53.4108	-52.5994	-177.646	13.1302	-84.1166	-157.899	38.658	-65.4297	-181.191	36.4203	-33.4801	-164.25	0.163346	-73.8501	-147.319	22.3818	-56.6092	-172.335	21.7096	-33.1041	-156.889	-12.791	-62.3814	-144.032	13.5397	-49.8513	-166.457	13.3628	-27.0024	-210.792	-30.8524	-38.7145	-224.657	-35.6412	-6.747	-240.644	-2.86877	-31.2688	
55	0.458333	-241.543	27.6786	-18.325	-237.373	46.1905	-46.9509	-221.837	53.2329	-75.7097	-203.096	53.6685	-98.4725	-203.566	21.4433	-90.3977	-176.512	42.3318	-86.8616	-183.88	49.7358	-53.0645	-183.382	13.5092	-86.951	-162.682	38.897	-68.3041	-182.304	33.0267	-35.5789	-171.353	0.117769	-77.5798	-152.917	23.5192	-57.9752	-177.611	19.1322	-35.114	-159.617	-15.9253	-64.5555	-148.015	12.3744	-54.7127	-170.863	9.67773	-26.4227	-214.474	-29.7173	-40.1971	-228.89	-34.8841	-11.748	-245.332	-8.18513	-31.2357	
56	0.466667	-244.416	26.869	-23.0727	-238.021	46.0791	-48.9807	-223.1	55.4717	-79.9559	-205.253	57.0966	-99.0851	-206.021	22.3408	-94.9512	-181.581	43.0979	-89.0429	-188.393	49.1229	-56.1405	-184.799	12.18	-89.6117	-165.689	34.672	-67.5507	-189.575	27.9423	-36.0515	-173.404	-2.33504	-78.9632	-157.106	20.8531	-59.778	-185.135	15.7657	-38.1265	-166.292	-18.1808	-65.8681	-150.777	9.80606	-57.8043	-172.283	9.1591	-29.6626	-213.578	-35.56	-45.7137	-230.522	-40.8698	-10.8435	-245.942	-7.822	-36.428	
